<?xml version="1.0" standalone="no"?>
<!DOCTYPE svg PUBLIC "-//W3C//DTD SVG 20010904//EN"
 "http://www.w3.org/TR/2001/REC-SVG-20010904/DTD/svg10.dtd">
<svg version="1.0" xmlns="http://www.w3.org/2000/svg"
 width="512.000000pt" height="512.000000pt" viewBox="0 0 512.000000 512.000000"
 preserveAspectRatio="xMidYMid meet">
<g transform="translate(0.000000,512.000000) scale(0.100000,-0.100000)"
fill="#000000" stroke="none">
<path d="M2435 4934 c-550 -41 -1015 -242 -1384 -599 -191 -185 -315 -354
-430 -586 -116 -234 -188 -491 -210 -754 -14 -159 -14 -2196 -1 -2409 17 -256
52 -363 137 -413 54 -31 140 -35 192 -9 18 10 84 70 145 134 249 262 349 342
427 342 55 0 122 -51 204 -154 38 -49 97 -123 130 -165 103 -130 188 -178 307
-174 71 2 144 39 198 100 20 24 71 91 111 150 126 182 201 243 299 243 95 0
181 -66 325 -250 152 -194 223 -243 350 -243 135 0 224 66 430 318 125 153
200 199 268 164 59 -30 136 -102 229 -213 202 -241 238 -270 333 -269 121 1
169 52 201 215 15 74 17 216 21 1283 5 1282 2 1370 -43 1595 -176 876 -902
1550 -1803 1674 -111 15 -350 26 -436 20z m300 -55 c389 -33 758 -174 1072
-407 92 -69 295 -265 354 -342 18 -25 -27 16 -101 91 -247 248 -504 411 -811
517 -237 82 -422 112 -689 112 -267 0 -452 -30 -689 -112 -307 -106 -564 -269
-811 -517 -74 -75 -119 -116 -101 -91 59 77 262 273 354 342 412 307 916 451
1422 407z m-492 -1334 c132 -34 258 -123 329 -232 78 -120 100 -192 99 -332 0
-166 -59 -299 -183 -416 -225 -213 -577 -207 -798 15 -228 228 -226 588 4 815
118 117 230 163 396 164 55 1 120 -5 153 -14z m1750 0 c132 -34 258 -123 329
-232 78 -120 100 -192 99 -332 0 -166 -59 -299 -183 -416 -225 -213 -577 -207
-798 15 -228 228 -226 588 4 815 118 117 230 163 396 164 55 1 120 -5 153 -14z"/>
<path d="M2236 3234 c-95 -30 -176 -143 -176 -244 0 -147 118 -265 264 -263
33 0 77 7 97 16 53 22 114 80 138 132 27 58 28 163 2 220 -54 119 -197 180
-325 139z"/>
<path d="M3986 3234 c-95 -30 -176 -143 -176 -244 0 -147 118 -265 264 -263
33 0 77 7 97 16 53 22 114 80 138 132 27 58 28 163 2 220 -54 119 -197 180
-325 139z"/>
</g>
</svg>
